<svg width="258" height="257" viewBox="0 0 258 257" fill="none" xmlns="http://www.w3.org/2000/svg">
<path fill-rule="evenodd" clip-rule="evenodd" d="M91.2029 203.428C90.887 203.742 91.1099 204.282 91.5558 204.282L257.5 204.282C257.776 204.282 258 204.506 258 204.782L258 256.5C258 256.776 257.776 257 257.5 257L20 257C8.9543 257 7.8281e-07 248.046 1.74846e-06 237L2.24239e-05 0.499977C2.24481e-05 0.223824 0.223869 -2.25355e-05 0.500022 -2.25114e-05L52.4231 -1.79721e-05C52.6992 -1.7948e-05 52.9231 0.223829 52.9231 0.499982L52.9231 165.801C52.9231 166.246 53.4607 166.469 53.776 166.155L205.859 14.6616C206.054 14.4673 206.37 14.4673 206.565 14.6616L243.279 51.2331C243.475 51.4285 243.475 51.7462 243.279 51.9416L91.2029 203.428Z" fill="#F6F9FA"/>
</svg>
