<svg width="258" height="257" viewBox="0 0 258 257" fill="none" xmlns="http://www.w3.org/2000/svg">
<path fill-rule="evenodd" clip-rule="evenodd" d="M166.797 53.5722C167.113 53.2575 166.89 52.7179 166.444 52.7179H0.5C0.223858 52.7179 0 52.4941 0 52.2179V0.5C0 0.223858 0.223858 0 0.5 0H238C249.046 0 258 8.95431 258 20V256.5C258 256.776 257.776 257 257.5 257H205.577C205.301 257 205.077 256.776 205.077 256.5V91.199C205.077 90.754 204.539 90.5307 204.224 90.8447L52.1409 242.338C51.9458 242.533 51.6303 242.533 51.4352 242.338L14.7214 205.767C14.5252 205.572 14.5252 205.254 14.7214 205.058L166.797 53.5722Z" fill="#F6F9FA"/>
</svg>
