<svg width="24" height="24" viewBox="0 0 24 24" fill="none" xmlns="http://www.w3.org/2000/svg">
<path d="M14 7L21 7" stroke="#515253" stroke-width="1.5" stroke-linecap="round" stroke-linejoin="round"/>
<path d="M3 7L6 7" stroke="#515253" stroke-width="1.5" stroke-linecap="round" stroke-linejoin="round"/>
<path d="M10 17L3 17" stroke="#515253" stroke-width="1.5" stroke-linecap="round" stroke-linejoin="round"/>
<path d="M21 17L18 17" stroke="#515253" stroke-width="1.5" stroke-linecap="round" stroke-linejoin="round"/>
<path d="M15 20C14 20 13 20 13 17C13 14 14 14 15 14C16.1046 14 17 14 17 17C17 20 16.1046 20 15 20Z" stroke="#515253" stroke-width="1.5" stroke-linecap="round" stroke-linejoin="round"/>
<path d="M9 10C8 10 7 10 7 7C7 4 8 4 9 4C10.1046 4 11 4 11 7C11 10 10.1046 10 9 10Z" stroke="#515253" stroke-width="1.5" stroke-linecap="round" stroke-linejoin="round"/>
</svg>
