<svg width="26" height="26" viewBox="0 0 26 26" fill="none" xmlns="http://www.w3.org/2000/svg">
<rect x="0.5" y="0.5" width="25" height="25" rx="6.5" fill="#F6F9FA"/>
<rect x="0.5" y="0.5" width="25" height="25" rx="6.5" stroke="#E6F0F8"/>
<path d="M19.7663 7.2377C19.3753 6.84531 18.9111 6.53404 18.4002 6.32168C17.8893 6.10931 17.3417 6 16.7887 6C16.2357 6 15.6881 6.10931 15.1772 6.32168C14.6663 6.53404 14.2021 6.84531 13.8112 7.2377L12.9998 8.05166L12.1884 7.2377C11.3987 6.44548 10.3277 6.00041 9.21089 6.00041C8.09409 6.00041 7.02303 6.44548 6.23334 7.2377C5.44365 8.02993 5 9.10441 5 10.2248C5 11.3452 5.44365 12.4196 6.23334 13.2119L7.0447 14.0258L12.9998 20L18.9549 14.0258L19.7663 13.2119C20.1574 12.8197 20.4677 12.354 20.6794 11.8415C20.891 11.3289 21 10.7796 21 10.2248C21 9.67 20.891 9.12064 20.6794 8.60811C20.4677 8.09558 20.1574 7.6299 19.7663 7.2377Z" stroke="#91A3B0" stroke-width="2" stroke-linecap="round" stroke-linejoin="round"/>
</svg>
