<svg width="16" height="16" viewBox="0 0 16 16" fill="none" xmlns="http://www.w3.org/2000/svg">
<path d="M6.66663 3.36468C6.70878 3.10081 6.77169 2.86934 6.85841 2.66665C7.31248 1.60534 8.33329 1.33331 10.6138 1.33331C14 1.33331 14.6666 2.66665 14.6666 5.39605C14.6666 7.33331 14.518 8.80031 13.3333 9.17374C13.1332 9.2368 12.9036 9.28776 12.6402 9.33331" stroke="#91A3B0" stroke-linecap="round" stroke-linejoin="round"/>
<path d="M5.99992 14.6666C9.33325 14.6666 10.6666 13.6666 10.6666 9.99998C10.6666 6.33331 9.33325 5.33331 5.99992 5.33331C2.66659 5.33331 1.33325 6.11109 1.33325 9.99998C1.33325 13.8889 2.66659 14.6666 5.99992 14.6666Z" stroke="#91A3B0" stroke-linecap="round" stroke-linejoin="round"/>
<path d="M4.66667 6C4.66667 6 5.06971 7.59695 4.33333 8.33333C3.59695 9.06971 2 8.66667 2 8.66667" stroke="#91A3B0" stroke-linecap="round" stroke-linejoin="round"/>
</svg>
