<svg width="20" height="20" viewBox="0 0 20 20" fill="none" xmlns="http://www.w3.org/2000/svg">
<path d="M11.6667 2.55581C11.1532 2.51755 10.5985 2.5 10 2.5C4.16667 2.5 2.5 4.16667 2.5 10C2.5 15.8333 4.16667 17.5 10 17.5C15.8333 17.5 17.5 15.8333 17.5 10.4412C17.5 9.67094 17.4749 8.97014 17.42 8.33333" stroke="#515253" stroke-width="1.5" stroke-linecap="round" stroke-linejoin="round"/>
<path d="M15.8334 5.83333C16.7539 5.83333 17.5001 5.08714 17.5001 4.16667C17.5001 3.24619 16.7539 2.5 15.8334 2.5C14.9129 2.5 14.1667 3.24619 14.1667 4.16667C14.1667 5.08714 14.9129 5.83333 15.8334 5.83333Z" stroke="#515253" stroke-width="1.5" stroke-linecap="round" stroke-linejoin="round"/>
<path d="M5.83325 12.5C7.33325 10.3571 7.86249 9.16226 8.90143 9.44444C9.66848 9.65278 9.73365 10.6556 10.606 10.8333C11.7748 11.0714 12.2083 9.28571 13.3333 7.5" stroke="#515253" stroke-width="1.5" stroke-linecap="round" stroke-linejoin="round"/>
</svg>
