<svg width="37" height="12" viewBox="0 0 37 12" fill="none" xmlns="http://www.w3.org/2000/svg">
<g clip-path="url(#clip0_1139_9678)">
<path d="M16.0334 11.7586H13.0361L14.9108 0.278809H17.9079L16.0334 11.7586Z" fill="#00579F"/>
<path d="M26.8987 0.559297C26.3075 0.32702 25.3698 0.0705566 24.2104 0.0705566C21.2505 0.0705566 19.1661 1.63368 19.1534 3.86848C19.1288 5.51731 20.6457 6.43311 21.7802 6.98288C22.9398 7.54467 23.334 7.91134 23.334 8.4121C23.3222 9.18116 22.397 9.53566 21.534 9.53566C20.3374 9.53566 19.6962 9.35289 18.7218 8.92502L18.3271 8.7416L17.9077 11.3186C18.6107 11.6357 19.9058 11.9172 21.2505 11.9295C24.3954 11.9295 26.4429 10.3906 26.4671 8.00906C26.4791 6.70224 25.6781 5.70089 23.9512 4.88265C22.9029 4.35738 22.2609 4.00321 22.2609 3.46577C22.2732 2.97719 22.8039 2.47676 23.9873 2.47676C24.9617 2.45225 25.6776 2.68421 26.22 2.91632L26.4911 3.03822L26.8987 0.559297Z" fill="#00579F"/>
<path d="M30.8824 7.69172C31.1292 7.03223 32.079 4.47977 32.079 4.47977C32.0666 4.50428 32.3254 3.8081 32.4734 3.38071L32.6828 4.36988C32.6828 4.36988 33.2504 7.11777 33.3737 7.69172C32.9052 7.69172 31.4744 7.69172 30.8824 7.69172ZM34.5821 0.278809H32.2637C31.5488 0.278809 31.0056 0.486251 30.6972 1.23129L26.2451 11.7584H29.39C29.39 11.7584 29.9078 10.3416 30.0191 10.0364C30.3641 10.0364 33.4235 10.0364 33.8673 10.0364C33.9534 10.4394 34.225 11.7584 34.225 11.7584H37.0001L34.5821 0.278809Z" fill="#00579F"/>
<path d="M10.5328 0.278809L7.59748 8.10693L7.27672 6.5193C6.73405 4.68737 5.0321 2.69703 3.13281 1.70737L5.82145 11.7464H8.99097L13.7021 0.278809H10.5328Z" fill="#00579F"/>
<path d="M4.87163 0.278809H0.049334L0 0.510761C3.76169 1.46341 6.25299 3.75973 7.27655 6.51979L6.22824 1.24379C6.05565 0.510599 5.52527 0.302994 4.87163 0.278809Z" fill="#FAA61A"/>
</g>
<defs>
<clipPath id="clip0_1139_9678">
<rect width="37" height="11.859" fill="white" transform="translate(0 0.0705566)"/>
</clipPath>
</defs>
</svg>
